<?xml version="1.0" encoding="UTF-8"?>
<svg id="Layer_2" data-name="Layer 2" xmlns="http://www.w3.org/2000/svg" xmlns:xlink="http://www.w3.org/1999/xlink" viewBox="0 0 82.14 82.37">
  <defs>
    <style>
      .cls-1 {
        filter: url(#outer-glow-2);
      }

      .cls-1, .cls-2 {
        fill: #fdf1b3;
      }

      .cls-3 {
        fill: #f9c485;
      }

      .cls-4 {
        filter: url(#outer-glow-1);
      }
    </style>
    <filter id="outer-glow-1" x="-12" y="-18.63" width="113" height="113" filterUnits="userSpaceOnUse">
      <feOffset dx="0" dy="0"/>
      <feGaussianBlur result="blur" stdDeviation="6"/>
      <feFlood flood-color="#e5a961" flood-opacity="1"/>
      <feComposite in2="blur" operator="in"/>
      <feComposite in="SourceGraphic"/>
    </filter>
    <filter id="outer-glow-2" x="0" y="4.37" width="78" height="78" filterUnits="userSpaceOnUse">
      <feOffset dx="0" dy="0"/>
      <feGaussianBlur result="blur-2" stdDeviation="6"/>
      <feFlood flood-color="#e5a961" flood-opacity="1"/>
      <feComposite in2="blur-2" operator="in"/>
      <feComposite in="SourceGraphic"/>
    </filter>
  </defs>
  <g id="Layer_1-2" data-name="Layer 1">
    <g class="cls-4">
      <path class="cls-3" d="M74.74,7.41l-3.25,68.61C71.49,39.92,42.23,10.65,6.13,10.65l68.61-3.25Z"/>
      <path class="cls-2" d="M71.49,76.01v-43.79c0-11.91-9.66-21.57-21.57-21.57H6.13C6.13,2.47,8.6,0,16.78,0h53.81c6.38,0,11.55,5.17,11.55,11.55v53.81c0,8.18-2.47,10.65-10.65,10.65Z"/>
    </g>
    <path class="cls-1" d="M43.57,28.93l13.1-6.02c1.63-.75,3.32.93,2.57,2.57l-6.02,13.1c-1.42,3.09-1.42,6.64,0,9.72l6.02,13.1c.75,1.63-.93,3.32-2.57,2.57l-13.1-6.02c-3.09-1.42-6.64-1.42-9.72,0l-13.1,6.02c-1.63.75-3.32-.93-2.57-2.57l6.02-13.1c1.42-3.09,1.42-6.64,0-9.72l-6.02-13.1c-.75-1.63.93-3.32,2.57-2.57l13.1,6.02c3.09,1.42,6.64,1.42,9.72,0Z"/>
  </g>
</svg>