<svg id="Layer_1" data-name="Layer 1" xmlns="http://www.w3.org/2000/svg" viewBox="0 0 62.21 56.23"><defs><style>.cls-1{fill:#333;}.cls-2{fill:#fff;}</style></defs><g id="Bubble"><path class="cls-1" d="M323.64,423.31c-5.91,0-9.87-2-11.35-5.59a37,37,0,0,1-5.76.45c-16.33,0-29.61-10.78-29.61-24s13.28-24.05,29.61-24.05,29.6,10.79,29.6,24.05c0,7.78-4.6,15-12.36,19.55,0,4.15,4.5,6.34,4.7,6.44a1.5,1.5,0,0,1-.37,2.83,27.79,27.79,0,0,1-4.46.36Z" transform="translate(-275.42 -368.58)"/><path class="cls-2" d="M306.53,371.58c15.52,0,28.1,10.09,28.1,22.55,0,7.75-4.88,14.59-12.32,18.65-.65,5.78,5.52,8.69,5.52,8.69a25.48,25.48,0,0,1-4.19.34c-3.9,0-9.26-.92-10.31-5.8a35.16,35.16,0,0,1-6.8.66c-15.53,0-28.11-10.09-28.11-22.54s12.58-22.55,28.11-22.55m0-3c-17.16,0-31.11,11.46-31.11,25.55s13.95,25.54,31.11,25.54a38.11,38.11,0,0,0,4.89-.31c1.52,2.68,4.87,5.45,12.22,5.45a28.12,28.12,0,0,0,4.74-.39,3,3,0,0,0,.73-5.66c-.14-.06-3.18-1.59-3.75-4.28,7.72-4.82,12.27-12.31,12.27-20.35,0-14.09-13.95-25.55-31.1-25.55Z" transform="translate(-275.42 -368.58)"/></g><g id="_..." data-name="..."><circle class="cls-2" cx="16.64" cy="26.24" r="4.11"/><circle class="cls-2" cx="31.08" cy="26.24" r="4.11"/><circle class="cls-2" cx="44.78" cy="26.24" r="4.11"/></g></svg>