<svg id="Layer_1" data-name="Layer 1" xmlns="http://www.w3.org/2000/svg" viewBox="0 0 57.89 44.91"><defs><style>.cls-1{fill:#333;}.cls-2{fill:#fff;}</style></defs><path class="cls-1" d="M286.1,417.67a4.37,4.37,0,0,1-4.33-4l-2.7-33.21a4.35,4.35,0,0,1,4.33-4.7h46.2a4.35,4.35,0,0,1,4.33,4.7l-2.7,33.21a4.37,4.37,0,0,1-4.33,4Z" transform="translate(-277.56 -374.26)"/><path class="cls-2" d="M329.6,377.26a2.84,2.84,0,0,1,2.83,3.08l-2.69,33.21a2.85,2.85,0,0,1-2.84,2.62H286.1a2.85,2.85,0,0,1-2.84-2.62l-2.69-33.21a2.84,2.84,0,0,1,2.83-3.08h46.2m0-3H283.4a5.84,5.84,0,0,0-5.82,6.32l2.69,33.22a5.89,5.89,0,0,0,5.83,5.37h40.8a5.89,5.89,0,0,0,5.83-5.37l2.69-33.22a5.84,5.84,0,0,0-5.82-6.32Z" transform="translate(-277.56 -374.26)"/><path class="cls-2" d="M331,397.6h-6.49V377.26h-6.82V397.6H316l-9.53-9.53L297,397.6h-1.69V377.26h-6.82V397.6H282l.55,6.82H297l9.5,9.5,9.5-9.5h14.48Zm-24.53,7.64L302.25,401l4.25-4.24,4.25,4.24Z" transform="translate(-277.56 -374.26)"/></svg>