<?xml version="1.0" encoding="UTF-8"?>
<svg id="Layer_2" data-name="Layer 2" xmlns="http://www.w3.org/2000/svg" viewBox="0 0 272.92 188.91">
  <defs>
    <style>
      .cls-1 {
        fill: #f9c485;
      }

      .cls-2 {
        fill: #fff;
      }
    </style>
  </defs>
  <g id="Layer_1-2" data-name="Layer 1">
    <path class="cls-2" d="M138.99,25.88c6-1.18,10.54-6.46,10.54-12.81,0-7.22-5.85-13.06-13.06-13.06s-13.06,5.85-13.06,13.06c0,6.35,4.53,11.64,10.54,12.81-61.8,1.35-103.81,51.83-103.81,113.96h212.67c0-62.12-42.01-112.61-103.81-113.96Z"/>
    <path class="cls-2" d="M270.98,139.93H1.94c-2.23,0-2.7,3.15-.56,3.78,14.32,4.24,32.38,29.88,32.38,45.19h205.4c0-15.31,18.06-40.95,32.38-45.19,2.14-.63,1.67-3.78-.56-3.78Z"/>
    <g>
      <path class="cls-1" d="M52.84,81.7h24.5c4.99,0,8.69.44,11.12,1.32,2.42.88,4.28,2.17,5.58,3.88,1.3,1.71,1.94,3.64,1.94,5.8,0,2.7-.88,5.13-2.65,7.29s-4.65,3.97-8.63,5.4c2.18.75,3.85,1.59,5.01,2.53s2.04,2.04,2.65,3.32.91,2.63.91,4.06c0,2.02-.53,4-1.59,5.94-1.06,1.95-2.66,3.69-4.8,5.24-2.14,1.55-4.5,2.58-7.07,3.09-3.64.77-7.98,1.16-13.03,1.16h-24.84l1.51-6.79h1.3c1.94,0,3.29-.21,4.03-.62s1.3-1.38,1.66-2.9l6.29-28.02c.19-.82.28-1.44.28-1.86,0-.82-.28-1.39-.84-1.72-.4-.23-1.29-.35-2.68-.35h-2.2l1.55-6.79ZM64.91,108.7l-2.75,12.07c-.19.65-.28,1.1-.28,1.37,0,.34.14.59.43.74.22.11.93.17,2.12.17h4.17c3.1,0,5.42-.33,6.97-.98,1.55-.66,2.82-1.68,3.82-3.09,1-1.4,1.5-2.86,1.5-4.38,0-1.26-.33-2.35-.99-3.26-.66-.91-1.6-1.58-2.82-2s-3.2-.63-5.94-.63h-6.23ZM66.52,101.63h4.9c3,0,5.01-.11,6.03-.32,1.88-.4,3.39-1.22,4.53-2.47s1.72-2.73,1.72-4.44-.62-2.89-1.85-3.74-3.47-1.27-6.72-1.27h-5.83l-2.79,12.23Z"/>
      <path class="cls-1" d="M129.34,118.08l4.43,5.1c-3.42,3.02-6.66,5.18-9.72,6.47s-6.22,1.93-9.47,1.93c-4.52,0-8.06-.96-10.62-2.88-3.91-3-5.87-7.02-5.87-12.06,0-3.77,1.06-7.31,3.18-10.6s5.19-5.99,9.21-8.09,8.31-3.15,12.88-3.15c3.84,0,6.83.86,8.96,2.57s3.2,3.77,3.2,6.19c0,1.69-.38,3.16-1.12,4.43-.98,1.69-2.37,3.09-4.17,4.22s-4.51,2.07-8.14,2.83-7.49,1.15-11.57,1.18v.88c0,1.95.63,3.54,1.88,4.78s2.88,1.86,4.87,1.86c1.66,0,3.47-.45,5.41-1.34,2.62-1.22,4.84-2.66,6.64-4.32ZM111.86,110.03c3.68-.21,6.52-.63,8.53-1.25s3.42-1.39,4.24-2.3c.63-.68.95-1.44.95-2.29,0-.75-.3-1.38-.9-1.9s-1.39-.77-2.37-.77c-1.17,0-2.45.33-3.83,1s-2.62,1.6-3.71,2.79-2.06,2.77-2.9,4.71Z"/>
      <path class="cls-1" d="M170.72,98.69l2.3-3.04h8.39l-5.86,23.55c-.38,1.62-.57,2.65-.57,3.09,0,.42.15.77.45,1.04s.68.4,1.14.4,1.12-.2,1.92-.6c.79-.4,1.64-1.02,2.54-1.86l3.97,4.64c-2.13,2.02-4.2,3.46-6.22,4.34s-4.08,1.32-6.18,1.32c-1.47,0-2.81-.26-4.01-.79s-2.22-1.26-3.05-2.2c-.83-.94-1.41-2-1.73-3.2-1.03,1.27-2.27,2.39-3.71,3.38s-2.84,1.7-4.18,2.14-2.84.67-4.48.67c-2.53,0-4.75-.59-6.66-1.76s-3.41-2.82-4.5-4.94-1.63-4.66-1.63-7.61c0-6.09,2.18-11.36,6.55-15.8s9.38-6.66,15.02-6.66c2.05,0,3.87.29,5.46.86,1.58.57,3.27,1.58,5.07,3.03ZM167.59,104.52c-1.29-.99-2.38-1.65-3.27-2.01-.89-.35-1.81-.53-2.74-.53-3.07,0-5.63,1.66-7.68,4.96-2.05,3.31-3.08,6.89-3.08,10.74,0,1.62.41,2.94,1.23,3.96.82,1.02,1.8,1.53,2.95,1.53,1.29,0,2.56-.46,3.8-1.37,1.71-1.29,3.36-3.42,4.94-6.38,1.58-2.96,2.87-6.6,3.85-10.92Z"/>
      <path class="cls-1" d="M191.27,102.94l-1.82-3.84c1.86-.76,3.44-1.59,4.76-2.48s2.34-1.77,3.06-2.65c.51-.62.97-1.52,1.38-2.7-.43.23-.83.42-1.22.54s-.74.19-1.07.19c-1.07,0-2.03-.46-2.86-1.38s-1.25-2.02-1.25-3.31c0-1.54.56-2.86,1.68-3.94s2.51-1.63,4.17-1.63c1.19,0,2.31.31,3.35.94s1.87,1.5,2.46,2.64.89,2.38.89,3.75c0,1.62-.49,3.33-1.48,5.11s-2.41,3.4-4.28,4.83-4.47,2.74-7.81,3.91Z"/>
      <path class="cls-1" d="M218.5,100.8c2.56,0,4.86.36,6.91,1.08s3.49,1.57,4.32,2.55,1.25,1.96,1.25,2.96c0,1.09-.35,2-1.04,2.71s-1.59,1.07-2.71,1.07c-.53,0-1.03-.07-1.52-.21s-.95-.35-1.38-.64c-.31-.18-.86-.64-1.64-1.41-.8-.76-1.35-1.24-1.67-1.44-.51-.29-1.09-.52-1.74-.69s-1.37-.25-2.15-.25c-1.34,0-2.31.21-2.88.63-.58.42-.86.94-.86,1.57,0,.51.16.92.47,1.23.45.45,1.15.83,2.11,1.14,3.88,1.29,6.64,2.34,8.28,3.15s2.87,1.78,3.7,2.92c.83,1.13,1.24,2.48,1.24,4.04,0,1.78-.57,3.46-1.7,5.04s-2.77,2.84-4.92,3.78-4.85,1.41-8.12,1.41c-4.75,0-8.54-.89-11.4-2.67-2.17-1.37-3.25-2.96-3.25-4.78,0-1.07.38-1.99,1.13-2.74s1.67-1.13,2.74-1.13c.45,0,.9.08,1.36.23s.94.43,1.45.82c.35.25.89.79,1.61,1.61.59.66,1.04,1.11,1.38,1.35.92.66,1.77,1.12,2.56,1.38s1.79.38,3,.38c1.58,0,2.74-.21,3.49-.62.98-.57,1.46-1.22,1.46-1.96s-.36-1.33-1.08-1.82c-.53-.35-2.31-1.04-5.36-2.05-3.54-1.19-5.98-2.53-7.32-4.01-1.35-1.46-2.02-3.16-2.02-5.1,0-1.68.52-3.24,1.55-4.69s2.62-2.62,4.76-3.52,4.8-1.35,7.98-1.35Z"/>
      <path class="cls-1" d="M46.58,146.04h15.99l-1.03,4.52h-1.27c-.88,0-1.49.09-1.83.26-.34.18-.63.45-.86.82-.23.37-.44,1.05-.64,2.03l-1.49,6.59,9.44-7.04c.92-.78,1.38-1.38,1.38-1.79,0-.32-.15-.55-.45-.7-.22-.12-.67-.17-1.34-.17l1.08-4.52h15.42l-1.08,4.52c-1.12,0-2.02.12-2.71.36-.69.24-1.65.79-2.89,1.63l-9.63,7.03,7.21,11.88c.7,1.19,1.33,1.94,1.88,2.25s1.52.48,2.9.49l-.98,4.52h-16.27l1.01-4.52h1.12c.84,0,1.39-.1,1.67-.3.28-.2.41-.48.41-.84s-.2-.89-.59-1.65l-4.54-7.48-4.58,3.03-1.09,4.84c-.16.6-.23,1.05-.23,1.35,0,.35.17.62.5.79.33.17,1.06.25,2.2.25h1.17l-1.08,4.52h-16.03l1.01-4.52h1.27c.91,0,1.54-.07,1.89-.22s.63-.38.85-.68.43-.92.65-1.84l4.13-18.4c.12-.58.19-.98.19-1.22,0-.44-.16-.77-.48-1.01-.26-.19-.88-.28-1.85-.28h-1.48l1.05-4.52Z"/>
      <path class="cls-1" d="M91.31,154.79h2.36l-4.01,16.34c-.28,1.14-.42,1.83-.42,2.06,0,.27.08.48.25.64.17.16.39.25.67.25.76,0,1.72-.56,2.87-1.69l2.51,3.12c-2.48,2.53-5.09,3.8-7.86,3.8-1.22,0-2.26-.21-3.1-.64-.84-.43-1.52-1.06-2.04-1.89-.51-.83-.77-1.63-.77-2.41,0-.28.05-.76.15-1.45.15-1.01.3-1.83.46-2.46l2.22-9.08h-4.78l1.12-4.52c3.84-.41,7.29-1.09,10.35-2.06ZM90.57,144.36c1.2,0,2.14.38,2.81,1.15s1.01,1.69,1.01,2.77c0,.8-.21,1.56-.62,2.3s-1,1.32-1.77,1.77-1.51.67-2.23.67c-.67,0-1.34-.18-2-.54s-1.17-.84-1.52-1.45-.53-1.27-.53-1.97c0-.78.22-1.55.67-2.32s1.03-1.35,1.75-1.76,1.53-.61,2.44-.61Z"/>
      <path class="cls-1" d="M107.91,147.36h5.3l-1.83,7.99h6.77l-1.1,4.55h-6.76l-2.4,10.55c-.22,1.04-.33,1.74-.33,2.09,0,.47.15.83.45,1.09.3.26.7.38,1.2.38.58,0,1.32-.28,2.23-.83.91-.55,1.93-1.48,3.07-2.78l3.1,2.7c-2.07,2.44-3.86,4.08-5.38,4.93-1.52.85-3.14,1.28-4.86,1.28-2.1,0-3.82-.61-5.15-1.84s-2.01-2.64-2.01-4.25c0-.84.16-1.97.47-3.37l2.24-9.94h-5.17l1.07-3.91c1.54-.39,2.83-.93,3.86-1.62s2.02-1.65,2.96-2.87c.95-1.22,1.7-2.6,2.28-4.14Z"/>
      <path class="cls-1" d="M139.86,170.91l2.62,3.54c-4.22,3.23-8.51,4.85-12.87,4.85-3.25,0-5.84-.93-7.78-2.78s-2.91-4.23-2.91-7.14c0-2.47.7-4.83,2.1-7.09s3.33-4.07,5.79-5.45,5.09-2.06,7.89-2.06,4.96.65,6.59,1.96,2.44,2.82,2.44,4.56c0,1.22-.34,2.18-1.03,2.89s-1.59,1.07-2.72,1.07c-.69,0-1.3-.16-1.85-.47-.55-.31-.99-.75-1.34-1.29-.17-.25-.35-.73-.54-1.44-.2-.75-.4-1.27-.6-1.55s-.46-.51-.8-.68-.69-.26-1.07-.26c-.86,0-1.73.36-2.6,1.08-1.14.92-2.11,2.24-2.91,3.95s-1.2,3.39-1.2,5.03c0,1.33.41,2.4,1.24,3.22s1.91,1.23,3.26,1.23c1.08,0,2.35-.27,3.82-.8s2.95-1.32,4.45-2.36Z"/>
      <path class="cls-1" d="M159.53,144.36h2.19l-3.39,15.06c1.08-1.2,2.09-2.11,3.02-2.73.93-.62,1.92-1.09,2.99-1.42s2.14-.49,3.24-.49c1.45,0,2.69.24,3.72.71s1.84,1.17,2.43,2.09c.59.91.89,1.87.89,2.87,0,.34-.02.68-.07,1.01-.02.16-.12.63-.3,1.43l-1.84,8.37c-.21.97-.32,1.57-.32,1.8,0,.27.1.5.31.7.21.2.45.3.72.3.32,0,.7-.11,1.14-.32.44-.21,1.07-.66,1.87-1.35l2.65,3.07c-1.61,1.42-3.04,2.41-4.31,2.98s-2.52.84-3.79.84c-1.74,0-3.17-.5-4.29-1.5-1.12-1-1.68-2.17-1.68-3.52,0-.86.15-1.96.44-3.3l1.52-6.7c.26-1.16.39-1.94.39-2.34s-.16-.77-.47-1.04-.73-.41-1.24-.41c-1.16,0-2.35.51-3.58,1.52-1.56,1.27-2.99,3.25-4.3,5.95-1.11,2.28-1.99,4.73-2.64,7.36l-.86,3.42h-7.37l6.26-27.87h-3.66l1.05-4.55c2.93-.14,6.02-.8,9.27-1.97Z"/>
      <path class="cls-1" d="M200.23,170.3l2.95,3.4c-2.28,2.02-4.44,3.45-6.48,4.31s-4.14,1.29-6.32,1.29c-3.02,0-5.38-.64-7.08-1.92-2.61-2-3.91-4.68-3.91-8.04,0-2.52.71-4.87,2.12-7.07s3.46-3.99,6.14-5.39,5.54-2.1,8.59-2.1c2.56,0,4.55.57,5.98,1.71s2.13,2.52,2.13,4.12c0,1.12-.25,2.11-.75,2.95-.66,1.12-1.58,2.06-2.78,2.81s-3,1.38-5.43,1.89-4.99.77-7.71.79v.59c0,1.3.42,2.36,1.25,3.19s1.92,1.24,3.25,1.24c1.11,0,2.31-.3,3.61-.89,1.75-.81,3.23-1.77,4.43-2.88ZM188.58,164.93c2.45-.14,4.35-.42,5.68-.83s2.28-.93,2.82-1.54c.42-.45.63-.96.63-1.52,0-.5-.2-.92-.6-1.27s-.93-.52-1.58-.52c-.78,0-1.63.22-2.55.67s-1.75,1.07-2.47,1.86-1.37,1.84-1.93,3.14Z"/>
      <path class="cls-1" d="M207.19,178.74l3.92-17.44h-3.64l.98-4.48c2.89-.16,5.89-.84,8.98-2.04h2.19l-1.03,4.53c1.01-1.17,1.96-2.06,2.83-2.68.87-.62,1.79-1.08,2.74-1.39.95-.31,1.92-.47,2.91-.47,1.86,0,3.37.57,4.54,1.72s1.76,2.54,1.76,4.17c0,.42-.02.83-.07,1.22-.02.19-.13.74-.35,1.67l-1.66,7.46c-.25,1.13-.37,1.8-.37,2.01,0,.25.09.45.26.61.17.15.41.23.72.23.86,0,1.8-.55,2.83-1.66l2.49,3.07c-1.52,1.45-2.89,2.46-4.12,3.02-1.23.56-2.49.84-3.8.84-1.85,0-3.29-.53-4.3-1.58s-1.52-2.2-1.52-3.43c0-.72.18-1.84.54-3.38l1.6-7.17c.17-.77.26-1.33.26-1.69,0-.42-.15-.77-.44-1.03s-.69-.4-1.21-.4c-.61,0-1.15.13-1.62.4-.86.5-1.78,1.41-2.76,2.73s-1.79,2.8-2.42,4.43c-.64,1.63-1.32,4.05-2.06,7.25l-.8,3.47h-7.37Z"/>
    </g>
  </g>
</svg>